# Blender v2.93.5 OBJ File: ''
# www.blender.org
mtllib Flare.mtl
o Circle
v 0.000000 -0.893126 -0.420034
v -0.079918 -0.893126 -0.411963
v -0.156764 -0.893126 -0.388060
v -0.227586 -0.893126 -0.349245
v -0.289662 -0.893126 -0.297009
v -0.340607 -0.893126 -0.233358
v -0.378462 -0.893126 -0.160740
v -0.401773 -0.893126 -0.081945
v -0.409644 -0.893126 -0.000000
v -0.401773 -0.893126 0.081944
v -0.378462 -0.893126 0.160740
v -0.340607 -0.893126 0.233358
v -0.289662 -0.893126 0.297008
v -0.227586 -0.893126 0.349245
v -0.156764 -0.893126 0.388060
v -0.079918 -0.893126 0.411963
v 0.000000 -0.893126 0.420033
v 0.079918 -0.893126 0.411963
v 0.156764 -0.893126 0.388060
v 0.227586 -0.893126 0.349245
v 0.289662 -0.893126 0.297008
v 0.340607 -0.893126 0.233358
v 0.378462 -0.893126 0.160740
v 0.401773 -0.893126 0.081944
v 0.409644 -0.893126 -0.000000
v 0.401773 -0.893126 -0.081945
v 0.378462 -0.893126 -0.160740
v 0.340607 -0.893126 -0.233358
v 0.289662 -0.893126 -0.297009
v 0.227586 -0.893126 -0.349245
v 0.156764 -0.893126 -0.388061
v 0.079918 -0.893126 -0.411963
v -0.079918 0.774183 -0.411963
v -0.061305 0.895325 -0.316020
v 0.000000 0.895325 -0.322211
v 0.000000 0.774183 -0.420034
v -0.156764 0.774183 -0.388060
v -0.120255 0.895325 -0.297684
v -0.227586 0.774183 -0.349245
v -0.174583 0.895325 -0.267909
v -0.289662 0.774183 -0.297009
v -0.222202 0.895325 -0.227838
v -0.340607 0.774183 -0.233358
v -0.261282 0.895325 -0.179011
v -0.378462 0.774183 -0.160740
v -0.290321 0.895325 -0.123305
v -0.401773 0.774183 -0.081945
v -0.308203 0.895325 -0.062860
v -0.409644 0.774183 -0.000000
v -0.314241 0.895325 -0.000000
v -0.401773 0.774183 0.081944
v -0.308203 0.895325 0.062860
v -0.378462 0.774183 0.160740
v -0.290321 0.895325 0.123305
v -0.340607 0.774183 0.233358
v -0.261282 0.895325 0.179011
v -0.289662 0.774183 0.297008
v -0.222202 0.895325 0.227837
v -0.227586 0.774183 0.349245
v -0.174583 0.895325 0.267909
v -0.156764 0.774183 0.388060
v -0.120255 0.895325 0.297684
v -0.079918 0.774183 0.411963
v -0.061306 0.895325 0.316020
v 0.000000 0.774183 0.420033
v 0.000000 0.895325 0.322211
v 0.079918 0.774183 0.411963
v 0.061305 0.895325 0.316020
v 0.156764 0.774183 0.388060
v 0.120255 0.895325 0.297684
v 0.227586 0.774183 0.349245
v 0.174583 0.895325 0.267909
v 0.289662 0.774183 0.297008
v 0.222202 0.895325 0.227838
v 0.340607 0.774183 0.233358
v 0.261282 0.895325 0.179011
v 0.378462 0.774183 0.160740
v 0.290321 0.895325 0.123305
v 0.401773 0.774183 0.081944
v 0.308203 0.895325 0.062860
v 0.409644 0.774183 -0.000000
v 0.314241 0.895325 -0.000000
v 0.401773 0.774183 -0.081945
v 0.308203 0.895325 -0.062860
v 0.378462 0.774183 -0.160740
v 0.290321 0.895325 -0.123305
v 0.340607 0.774183 -0.233358
v 0.261282 0.895325 -0.179011
v 0.289662 0.774183 -0.297009
v 0.222202 0.895325 -0.227838
v 0.227586 0.774183 -0.349245
v 0.174583 0.895325 -0.267909
v 0.156764 0.774183 -0.388061
v 0.120255 0.895325 -0.297684
v 0.079918 0.774183 -0.411963
v 0.061305 0.895325 -0.316020
vt 0.000000 0.000000
vt 0.000000 0.000000
vt 0.000000 0.000000
vt 0.000000 0.000000
vt 0.000000 0.000000
vt 0.000000 0.000000
vt 0.000000 0.000000
vt 0.000000 0.000000
vt 0.000000 0.000000
vt 0.000000 0.000000
vt 0.000000 0.000000
vt 0.000000 0.000000
vt 0.000000 0.000000
vt 0.000000 0.000000
vt 0.000000 0.000000
vt 0.000000 0.000000
vt 0.000000 0.000000
vt 0.000000 0.000000
vt 0.000000 0.000000
vt 0.000000 0.000000
vt 0.000000 0.000000
vt 0.000000 0.000000
vt 0.000000 0.000000
vt 0.000000 0.000000
vt 0.000000 0.000000
vt 0.000000 0.000000
vt 0.000000 0.000000
vt 0.000000 0.000000
vt 0.000000 0.000000
vt 0.000000 0.000000
vt 0.000000 0.000000
vt 0.000000 0.000000
vt 0.000000 0.000000
vt 0.000000 0.000000
vt 0.000000 0.000000
vt 0.000000 0.000000
vt 0.000000 0.000000
vt 0.000000 0.000000
vt 0.000000 0.000000
vt 0.000000 0.000000
vt 0.000000 0.000000
vt 0.000000 0.000000
vt 0.000000 0.000000
vt 0.000000 0.000000
vt 0.000000 0.000000
vt 0.000000 0.000000
vt 0.000000 0.000000
vt 0.000000 0.000000
vt 0.000000 0.000000
vt 0.000000 0.000000
vt 0.000000 0.000000
vt 0.000000 0.000000
vt 0.000000 0.000000
vt 0.000000 0.000000
vt 0.000000 0.000000
vt 0.000000 0.000000
vt 0.000000 0.000000
vt 0.000000 0.000000
vt 0.000000 0.000000
vt 0.000000 0.000000
vt 0.000000 0.000000
vt 0.000000 0.000000
vt 0.000000 0.000000
vt 0.000000 0.000000
vt 0.000000 0.000000
vt 0.000000 0.000000
vt 0.000000 0.000000
vt 0.000000 0.000000
vt 0.000000 0.000000
vt 0.000000 0.000000
vt 0.000000 0.000000
vt 0.000000 0.000000
vt 0.000000 0.000000
vt 0.000000 0.000000
vt 0.000000 0.000000
vt 0.000000 0.000000
vt 0.000000 0.000000
vt 0.000000 0.000000
vt 0.000000 0.000000
vt 0.000000 0.000000
vt 0.000000 0.000000
vt 0.000000 0.000000
vt 0.000000 0.000000
vt 0.000000 0.000000
vt 0.000000 0.000000
vt 0.000000 0.000000
vt 0.000000 0.000000
vt 0.000000 0.000000
vt 0.000000 0.000000
vt 0.000000 0.000000
vt 0.000000 0.000000
vt 0.000000 0.000000
vt 0.000000 0.000000
vt 0.000000 0.000000
vt 0.000000 0.000000
vt 0.000000 0.000000
vn 0.0000 -1.0000 -0.0000
vn -0.2970 0.0000 -0.9549
vn 0.9954 0.0000 0.0956
vn -0.8867 0.0000 0.4623
vn 0.9954 0.0000 -0.0956
vn -0.7807 0.0000 0.6249
vn 0.9589 0.0000 -0.2837
vn -0.6439 0.0000 0.7651
vn 0.8867 0.0000 -0.4623
vn -0.4806 0.0000 0.8769
vn 0.7807 0.0000 -0.6249
vn -0.2970 0.0000 0.9549
vn 0.0000 1.0000 0.0000
vn 0.6439 0.0000 -0.7651
vn -0.1005 0.0000 0.9949
vn 0.1005 0.0000 -0.9949
vn 0.4806 0.0000 -0.8769
vn 0.1005 0.0000 0.9949
vn -0.6439 0.0000 -0.7651
vn 0.2970 0.0000 -0.9549
vn 0.2970 0.0000 0.9549
vn -0.7807 0.0000 -0.6249
vn 0.4806 0.0000 0.8769
vn -0.8867 0.0000 -0.4623
vn -0.4806 0.0000 -0.8769
vn 0.6439 0.0000 0.7651
vn -0.9589 0.0000 -0.2837
vn 0.7807 0.0000 0.6249
vn -0.9954 0.0000 -0.0956
vn 0.8867 0.0000 0.4623
vn -0.9954 0.0000 0.0956
vn 0.9589 0.0000 0.2837
vn -0.9589 0.0000 0.2837
vn -0.0783 0.6263 -0.7756
vn -0.2317 0.6256 -0.7449
vn -0.3755 0.6243 -0.6851
vn -0.5039 0.6225 -0.5988
vn -0.6122 0.6207 -0.4900
vn -0.6965 0.6189 -0.3631
vn -0.7541 0.6176 -0.2231
vn -0.7834 0.6169 -0.0752
vn -0.7834 0.6169 0.0752
vn -0.7541 0.6176 0.2231
vn -0.6965 0.6189 0.3631
vn -0.6122 0.6207 0.4900
vn -0.5039 0.6225 0.5988
vn -0.3755 0.6243 0.6851
vn -0.2317 0.6256 0.7449
vn -0.0783 0.6263 0.7756
vn 0.0783 0.6263 0.7756
vn 0.2317 0.6256 0.7449
vn 0.3755 0.6243 0.6851
vn 0.5039 0.6225 0.5988
vn 0.6122 0.6207 0.4900
vn 0.6965 0.6189 0.3631
vn 0.7541 0.6176 0.2231
vn 0.7834 0.6169 0.0752
vn 0.7834 0.6169 -0.0752
vn 0.7541 0.6176 -0.2231
vn 0.6965 0.6189 -0.3631
vn 0.6122 0.6207 -0.4900
vn 0.5039 0.6225 -0.5988
vn 0.3755 0.6243 -0.6851
vn 0.2317 0.6256 -0.7449
vn 0.0783 0.6263 -0.7756
vn -0.1005 0.0000 -0.9949
usemtl None
s off
f 2/1/1 1/2/1 32/3/1 31/4/1 30/5/1 29/6/1 28/7/1 27/8/1 26/9/1 25/10/1 24/11/1 23/12/1 22/13/1 21/14/1 20/15/1 19/16/1 18/17/1 17/18/1 16/19/1 15/20/1 14/21/1 13/22/1 12/23/1 11/24/1 10/25/1 9/26/1 8/27/1 7/28/1 6/29/1 5/30/1 4/31/1 3/32/1
f 2/1/2 3/32/2 37/33/2 33/34/2
f 24/11/3 25/10/3 81/35/3 79/36/3
f 11/24/4 12/23/4 55/37/4 53/38/4
f 25/10/5 26/9/5 83/39/5 81/35/5
f 12/23/6 13/22/6 57/40/6 55/37/6
f 26/9/7 27/8/7 85/41/7 83/39/7
f 13/22/8 14/21/8 59/42/8 57/40/8
f 27/8/9 28/7/9 87/43/9 85/41/9
f 14/21/10 15/20/10 61/44/10 59/42/10
f 28/7/11 29/6/11 89/45/11 87/43/11
f 15/20/12 16/19/12 63/46/12 61/44/12
f 34/47/13 38/48/13 40/49/13 42/50/13 44/51/13 46/52/13 48/53/13 50/54/13 52/55/13 54/56/13 56/57/13 58/58/13 60/59/13 62/60/13 64/61/13 66/62/13 68/63/13 70/64/13 72/65/13 74/66/13 76/67/13 78/68/13 80/69/13 82/70/13 84/71/13 86/72/13 88/73/13 90/74/13 92/75/13 94/76/13 96/77/13 35/78/13
f 29/6/14 30/5/14 91/79/14 89/45/14
f 16/19/15 17/18/15 65/80/15 63/46/15
f 32/3/16 1/2/16 36/81/16 95/82/16
f 30/5/17 31/4/17 93/83/17 91/79/17
f 17/18/18 18/17/18 67/84/18 65/80/18
f 4/31/19 5/30/19 41/85/19 39/86/19
f 31/4/20 32/3/20 95/82/20 93/83/20
f 18/17/21 19/16/21 69/87/21 67/84/21
f 5/30/22 6/29/22 43/88/22 41/85/22
f 19/16/23 20/15/23 71/89/23 69/87/23
f 6/29/24 7/28/24 45/90/24 43/88/24
f 3/32/25 4/31/25 39/86/25 37/33/25
f 20/15/26 21/14/26 73/91/26 71/89/26
f 7/28/27 8/27/27 47/92/27 45/90/27
f 21/14/28 22/13/28 75/93/28 73/91/28
f 8/27/29 9/26/29 49/94/29 47/92/29
f 22/13/30 23/12/30 77/95/30 75/93/30
f 9/26/31 10/25/31 51/96/31 49/94/31
f 23/12/32 24/11/32 79/36/32 77/95/32
f 10/25/33 11/24/33 53/38/33 51/96/33
f 34/47/34 35/78/34 36/81/34 33/34/34
f 38/48/35 34/47/35 33/34/35 37/33/35
f 40/49/36 38/48/36 37/33/36 39/86/36
f 42/50/37 40/49/37 39/86/37 41/85/37
f 44/51/38 42/50/38 41/85/38 43/88/38
f 46/52/39 44/51/39 43/88/39 45/90/39
f 48/53/40 46/52/40 45/90/40 47/92/40
f 50/54/41 48/53/41 47/92/41 49/94/41
f 52/55/42 50/54/42 49/94/42 51/96/42
f 54/56/43 52/55/43 51/96/43 53/38/43
f 56/57/44 54/56/44 53/38/44 55/37/44
f 58/58/45 56/57/45 55/37/45 57/40/45
f 60/59/46 58/58/46 57/40/46 59/42/46
f 62/60/47 60/59/47 59/42/47 61/44/47
f 64/61/48 62/60/48 61/44/48 63/46/48
f 66/62/49 64/61/49 63/46/49 65/80/49
f 68/63/50 66/62/50 65/80/50 67/84/50
f 70/64/51 68/63/51 67/84/51 69/87/51
f 72/65/52 70/64/52 69/87/52 71/89/52
f 74/66/53 72/65/53 71/89/53 73/91/53
f 76/67/54 74/66/54 73/91/54 75/93/54
f 78/68/55 76/67/55 75/93/55 77/95/55
f 80/69/56 78/68/56 77/95/56 79/36/56
f 82/70/57 80/69/57 79/36/57 81/35/57
f 84/71/58 82/70/58 81/35/58 83/39/58
f 86/72/59 84/71/59 83/39/59 85/41/59
f 88/73/60 86/72/60 85/41/60 87/43/60
f 90/74/61 88/73/61 87/43/61 89/45/61
f 92/75/62 90/74/62 89/45/62 91/79/62
f 94/76/63 92/75/63 91/79/63 93/83/63
f 96/77/64 94/76/64 93/83/64 95/82/64
f 35/78/65 96/77/65 95/82/65 36/81/65
f 1/2/66 2/1/66 33/34/66 36/81/66
